<?xml version="1.0" encoding="UTF-8" standalone="no"?>
<!-- Created with Inkscape (http://www.inkscape.org/) -->

<svg
   version="1.0"
   id="svg2"
   sodipodi:version="0.32"
   inkscape:version="1.1 (c68e22c387, 2021-05-23)"
   sodipodi:docname="lampi-logo-inkscape.svg"
   width="388.84pt"
   height="115.02pt"
   xmlns:inkscape="http://www.inkscape.org/namespaces/inkscape"
   xmlns:sodipodi="http://sodipodi.sourceforge.net/DTD/sodipodi-0.dtd"
   xmlns:xlink="http://www.w3.org/1999/xlink"
   xmlns="http://www.w3.org/2000/svg"
   xmlns:svg="http://www.w3.org/2000/svg"
   xmlns:rdf="http://www.w3.org/1999/02/22-rdf-syntax-ns#"
   xmlns:cc="http://creativecommons.org/ns#"
   xmlns:dc="http://purl.org/dc/elements/1.1/">
  <metadata
     id="metadata371">
    <rdf:RDF>
      <cc:Work
         rdf:about="">
        <dc:format>image/svg+xml</dc:format>
        <dc:type
           rdf:resource="http://purl.org/dc/dcmitype/StillImage" />
      </cc:Work>
    </rdf:RDF>
  </metadata>
  <sodipodi:namedview
     inkscape:window-height="1387"
     inkscape:window-width="3440"
     inkscape:pageshadow="2"
     inkscape:pageopacity="0.0"
     guidetolerance="10.0"
     gridtolerance="10.0"
     objecttolerance="10.0"
     borderopacity="1.0"
     bordercolor="#666666"
     pagecolor="#ffffff"
     id="base"
     inkscape:zoom="1.5175673"
     inkscape:cx="497.17731"
     inkscape:cy="205.26273"
     inkscape:window-x="-8"
     inkscape:window-y="22"
     inkscape:current-layer="svg2"
     width="210mm"
     height="40mm"
     units="mm"
     inkscape:pagecheckerboard="1"
     inkscape:document-units="pt"
     showgrid="false"
     showguides="true"
     inkscape:guide-bbox="true"
     inkscape:window-maximized="1">
    <sodipodi:guide
       position="52.069641,133.44074"
       orientation="0,-1"
       id="guide6369" />
  </sodipodi:namedview>
  <defs
     id="defs4">
    <linearGradient
       id="linearGradient1712">
      <stop
         style="stop-color:#006938;stop-opacity:1"
         offset="0"
         id="stop1708" />
      <stop
         style="stop-color:#7fb49b;stop-opacity:1"
         offset="1"
         id="stop1710" />
    </linearGradient>
    <linearGradient
       id="linearGradient1340">
      <stop
         style="stop-color:#00b5d1;stop-opacity:1"
         offset="0"
         id="stop1336" />
      <stop
         style="stop-color:#003865;stop-opacity:1"
         offset="1"
         id="stop1338" />
    </linearGradient>
    <linearGradient
       id="linearGradient4689">
      <stop
         style="stop-color:#5a9fd4;stop-opacity:1;"
         offset="0"
         id="stop1045" />
      <stop
         style="stop-color:#306998;stop-opacity:1;"
         offset="1"
         id="stop1047" />
    </linearGradient>
    <linearGradient
       id="linearGradient2795">
      <stop
         style="stop-color:#b8b8b8;stop-opacity:0.49803922;"
         offset="0"
         id="stop2797" />
      <stop
         style="stop-color:#7f7f7f;stop-opacity:0;"
         offset="1"
         id="stop2799" />
    </linearGradient>
    <linearGradient
       id="linearGradient2787">
      <stop
         style="stop-color:#7f7f7f;stop-opacity:0.5;"
         offset="0"
         id="stop2789" />
      <stop
         style="stop-color:#7f7f7f;stop-opacity:0;"
         offset="1"
         id="stop2791" />
    </linearGradient>
    <linearGradient
       id="linearGradient3676">
      <stop
         style="stop-color:#b2b2b2;stop-opacity:0.5;"
         offset="0"
         id="stop3678" />
      <stop
         style="stop-color:#b3b3b3;stop-opacity:0;"
         offset="1"
         id="stop3680" />
    </linearGradient>
    <linearGradient
       id="linearGradient3236">
      <stop
         style="stop-color:#f4f4f4;stop-opacity:1"
         offset="0"
         id="stop3244" />
      <stop
         style="stop-color:white;stop-opacity:1"
         offset="1"
         id="stop3240" />
    </linearGradient>
    <linearGradient
       id="linearGradient4671">
      <stop
         style="stop-color:#ffd43b;stop-opacity:1;"
         offset="0"
         id="stop4673" />
      <stop
         style="stop-color:#ffe873;stop-opacity:1"
         offset="1"
         id="stop4675" />
    </linearGradient>
    <linearGradient
       id="glasg">
      <stop
         style="stop-color:#5a9fd4;stop-opacity:1;"
         offset="0"
         id="stop4691" />
      <stop
         style="stop-color:#306998;stop-opacity:1;"
         offset="1"
         id="stop4693" />
    </linearGradient>
    <linearGradient
       x1="224.23996"
       y1="144.75717"
       x2="-65.308502"
       y2="144.75717"
       id="linearGradient2987"
       xlink:href="#linearGradient4671"
       gradientUnits="userSpaceOnUse"
       gradientTransform="translate(100.2702,99.61116)" />
    <linearGradient
       x1="172.94208"
       y1="77.475983"
       x2="26.670298"
       y2="76.313133"
       id="linearGradient2990"
       xlink:href="#glasg"
       gradientUnits="userSpaceOnUse"
       gradientTransform="translate(100.2702,99.61116)" />
    <linearGradient
       inkscape:collect="always"
       xlink:href="#glasg"
       id="linearGradient2587"
       gradientUnits="userSpaceOnUse"
       gradientTransform="translate(100.2702,99.61116)"
       x1="172.94208"
       y1="77.475983"
       x2="26.670298"
       y2="76.313133" />
    <linearGradient
       inkscape:collect="always"
       xlink:href="#linearGradient4671"
       id="linearGradient2589"
       gradientUnits="userSpaceOnUse"
       gradientTransform="translate(100.2702,99.61116)"
       x1="224.23996"
       y1="144.75717"
       x2="-65.308502"
       y2="144.75717" />
    <linearGradient
       inkscape:collect="always"
       xlink:href="#glasg"
       id="linearGradient2248"
       gradientUnits="userSpaceOnUse"
       gradientTransform="translate(100.2702,99.61116)"
       x1="172.94208"
       y1="77.475983"
       x2="26.670298"
       y2="76.313133" />
    <linearGradient
       inkscape:collect="always"
       xlink:href="#linearGradient4671"
       id="linearGradient2250"
       gradientUnits="userSpaceOnUse"
       gradientTransform="translate(100.2702,99.61116)"
       x1="224.23996"
       y1="144.75717"
       x2="-65.308502"
       y2="144.75717" />
    <linearGradient
       inkscape:collect="always"
       xlink:href="#linearGradient4671"
       id="linearGradient2255"
       gradientUnits="userSpaceOnUse"
       gradientTransform="matrix(0.562541,0,0,0.567972,-11.5974,-7.60954)"
       x1="224.23996"
       y1="144.75717"
       x2="-65.308502"
       y2="144.75717" />
    <linearGradient
       inkscape:collect="always"
       xlink:href="#glasg"
       id="linearGradient2258"
       gradientUnits="userSpaceOnUse"
       gradientTransform="matrix(0.562541,0,0,0.567972,-11.5974,-7.60954)"
       x1="172.94208"
       y1="76.176224"
       x2="26.670298"
       y2="76.313133" />
    <radialGradient
       inkscape:collect="always"
       xlink:href="#linearGradient2795"
       id="radialGradient2801"
       cx="61.518883"
       cy="132.28575"
       fx="61.518883"
       fy="132.28575"
       r="29.036913"
       gradientTransform="matrix(1,0,0,0.177966,0,108.7434)"
       gradientUnits="userSpaceOnUse" />
    <linearGradient
       inkscape:collect="always"
       xlink:href="#linearGradient1340"
       id="linearGradient1478"
       gradientUnits="userSpaceOnUse"
       gradientTransform="matrix(0.562541,0,0,0.567972,-9.399749,-5.305317)"
       x1="26.648937"
       y1="20.603781"
       x2="135.66525"
       y2="114.39767" />
    <radialGradient
       inkscape:collect="always"
       xlink:href="#linearGradient2795"
       id="radialGradient1480"
       gradientUnits="userSpaceOnUse"
       gradientTransform="matrix(2.382716e-8,-0.296405,1.43676,4.683673e-7,-128.544,150.5202)"
       cx="61.518883"
       cy="132.28575"
       fx="61.518883"
       fy="132.28575"
       r="29.036913" />
    <linearGradient
       inkscape:collect="always"
       xlink:href="#linearGradient1712"
       id="linearGradient7335"
       gradientUnits="userSpaceOnUse"
       gradientTransform="matrix(-0.562541,0,0,-0.567972,131.57592,129.85173)"
       x1="26.648937"
       y1="20.603781"
       x2="135.66525"
       y2="114.39767" />
  </defs>
  <path
     id="path46"
     style="fill:#646464;fill-opacity:1"
     d="m 150.13332,274.40146 c 0,-14.56215 -4.15226,-22.03817 -12.45678,-22.44755 -3.30427,-0.15595 -6.53055,0.37039 -9.66912,1.58878 -2.505,0.89673 -4.19124,1.78372 -5.07823,2.68045 v 34.75812 c 5.31216,3.33351 10.02976,4.88329 14.14303,4.63962 8.70415,-0.57508 13.0611,-7.64172 13.0611,-21.21942 z m 10.24419,0.60432 c 0,7.39804 -1.73498,13.53871 -5.22444,18.422 -3.88909,5.5266 -9.27923,8.37275 -16.17042,8.52871 -5.1952,0.1657 -10.54635,-1.46207 -16.05346,-4.87355 v 31.59031 l -8.90884,-3.17755 v -70.12056 c 1.46206,-1.79346 3.34325,-3.3335 5.62407,-4.63961 5.30242,-3.08983 11.74524,-4.67861 19.32848,-4.75658 l 0.12671,0.12671 c 6.93018,-0.0877 12.27159,2.75843 16.02422,8.5287 3.4992,5.29267 5.25368,12.07665 5.25368,20.37142 z" />
  <path
     id="path48"
     style="fill:#646464;fill-opacity:1"
     d="m 214.82475,295.73784 c 0,9.92254 -0.9942,16.79423 -2.9826,20.61509 -1.99816,3.82086 -5.79952,6.8717 -11.41385,9.14277 -4.55189,1.79346 -9.47417,2.76817 -14.75709,2.93387 l -1.47181,-5.61432 c 5.37064,-0.73103 9.15252,-1.46207 11.34561,-2.1931 4.31796,-1.46206 7.28108,-3.70389 8.90884,-6.706 1.30611,-2.44651 1.94942,-7.11536 1.94942,-14.02605 v -2.3198 c -6.09193,2.76817 -12.47628,4.14251 -19.15303,4.14251 -4.38619,0 -8.25579,-1.37434 -11.58929,-4.14251 -3.74289,-3.01186 -5.61433,-6.83272 -5.61433,-11.46258 v -37.07793 l 8.90884,-3.05084 v 37.3216 c 0,3.98656 1.28662,7.0569 3.85985,9.21101 2.57323,2.1541 5.90674,3.18729 9.99077,3.10932 4.08403,-0.0877 8.46047,-1.66676 13.10983,-4.75658 v -43.54025 h 8.90884 z" />
  <path
     id="path50"
     style="fill:#646464;fill-opacity:1"
     d="m 249.60237,301.46913 c -1.06243,0.0877 -2.03714,0.12671 -2.93387,0.12671 -5.03925,0 -8.96733,-1.19889 -11.77449,-3.60642 -2.79742,-2.40753 -4.20099,-5.73129 -4.20099,-9.97127 v -35.08953 h -6.10168 v -5.60457 h 6.10168 v -14.88381 l 8.89909,-3.16781 v 18.05162 h 10.01026 v 5.60457 h -10.01026 v 34.84585 c 0,3.34325 0.89673,5.71179 2.6902,7.09588 1.54004,1.14041 3.98656,1.79347 7.32006,1.95917 z" />
  <path
     id="path52"
     style="fill:#646464;fill-opacity:1"
     d="m 303.54276,300.7381 h -8.90884 v -34.38773 c 0,-3.49921 -0.81876,-6.51106 -2.44651,-9.02581 -1.88119,-2.84615 -4.49342,-4.26923 -7.84641,-4.26923 -4.08404,0 -9.19152,2.15411 -15.32242,6.46233 v 41.22044 h -8.90885 v -82.19721 l 8.90885,-2.80716 v 37.43857 c 5.6923,-4.14251 11.91093,-6.21864 18.66566,-6.21864 4.7176,0 8.53846,1.58877 11.46258,4.75658 2.93388,3.1678 4.39594,7.11537 4.39594,11.83296 v 37.1949 z" />
  <path
     id="path54"
     style="fill:#646464;fill-opacity:1"
     d="m 350.89412,272.99788 c 0,-5.59483 -1.06242,-10.21495 -3.17755,-13.87011 -2.51474,-4.45442 -6.42332,-6.80347 -11.70625,-7.04715 -9.76658,0.56534 -14.64012,7.56375 -14.64012,20.97574 0,6.15042 1.01369,11.28713 3.06057,15.41015 2.61223,5.25368 6.53056,7.84641 11.755,7.75869 9.80557,-0.078 14.70835,-7.81717 14.70835,-23.22732 z m 9.75685,0.0585 c 0,7.96338 -2.03714,14.5914 -6.10168,19.88407 -4.47391,5.92623 -10.65357,8.89909 -18.53897,8.89909 -7.81716,0 -13.90909,-2.97286 -18.30503,-8.89909 -3.98656,-5.29267 -5.97497,-11.92069 -5.97497,-19.88407 0,-7.48576 2.15411,-13.78238 6.46232,-18.90935 4.5519,-5.43888 10.53661,-8.16806 17.93464,-8.16806 7.39805,0 13.42174,2.72918 18.06137,8.16806 4.3082,5.12697 6.46232,11.42359 6.46232,18.90935 z" />
  <path
     id="path56"
     style="fill:#646464;fill-opacity:1"
     d="m 411.72571,300.7381 h -8.90884 v -36.33715 c 0,-3.98656 -1.19889,-7.09588 -3.59667,-9.33772 -2.39779,-2.23208 -5.59483,-3.31401 -9.58139,-3.22628 -4.23023,0.078 -8.25579,1.46206 -12.07664,4.14251 v 44.75864 h -8.90884 v -45.86006 c 5.12697,-3.73313 9.84456,-6.16991 14.15276,-7.31032 4.06455,-1.06243 7.65148,-1.58877 10.74131,-1.58877 2.11512,0 4.10352,0.20469 5.97496,0.61406 3.49921,0.80901 6.34535,2.31006 8.53845,4.51291 2.44651,2.43677 3.6649,5.3609 3.6649,8.78212 z" />
  <rect
     style="fill:#ffffff;fill-opacity:1;stroke-width:0.94738"
     id="rect6663"
     width="427.43448"
     height="152.53847"
     x="0.35223722"
     y="0.95129257"
     inkscape:export-filename="D:\Projects\LamPi\logo\lampi.jpg"
     inkscape:export-xdpi="96"
     inkscape:export-ydpi="96" />
  <path
     id="path1948"
     style="fill:url(#linearGradient1478);fill-opacity:1"
     d="m 60.509766,6.3984375 c -4.583653,0.021298 -4.218961,0.099671 -12.8125,1.09375 C 39.103727,8.4862668 28.330346,15.254017 13.789062,20.380859 12.226807,20.931666 9.9453125,23.53125 9.9453125,23.53125 l 11.9980465,9.048828 1.003907,-1.154297 38.15625,0.222657 v 3.40625 h -26.8125 -10.0625 c -7.792459,0 -14.6157594,4.683717 -16.7500004,13.59375 -2.46182,10.212966 -2.5710151,16.586022 0,27.25 1.9059283,7.937852 6.4575434,13.593747 14.2500004,13.59375 h 9.21875 v -12.25 c 0,-8.849903 7.657144,-16.656249 16.75,-16.65625 h 26.78125 c 7.454951,0 13.406253,-6.138164 13.40625,-13.625 v -25.53125 c 0,-7.266339 -6.12998,-12.7247779 -13.40625,-13.9375005 -4.605987,-0.7667253 -9.385097,-1.1150483 -13.96875,-1.09375 z m -14.5,8.2187505 c 2.769547,0 5.03125,2.298645 5.03125,5.125 -2e-6,2.816335 -2.261703,5.09375 -5.03125,5.09375 -2.779476,-2e-6 -5.03125,-2.277416 -5.03125,-5.09375 -10e-7,-2.826354 2.251774,-5.125 5.03125,-5.125 z m 10.953125,3.205078 c 1.157945,5.86e-4 2.096196,0.939711 2.095703,2.097656 -5.85e-4,1.157182 -0.938521,2.095118 -2.095703,2.095703 -1.157945,4.93e-4 -2.097071,-0.937758 -2.097657,-2.095703 -4.93e-4,-1.158708 0.938949,-2.09815 2.097657,-2.097656 z m 5.445312,0 c 1.157945,5.86e-4 2.096196,0.939711 2.095703,2.097656 -5.85e-4,1.157182 -0.938521,2.095118 -2.095703,2.095703 -1.157945,4.93e-4 -2.09707,-0.937758 -2.097656,-2.095703 -4.93e-4,-1.158708 0.938948,-2.098149 2.097656,-2.097656 z m 5.445313,0 c 1.158708,-4.93e-4 2.098149,0.938948 2.097656,2.097656 -5.86e-4,1.157945 -0.939711,2.096196 -2.097656,2.095703 -1.157183,-5.85e-4 -2.095119,-0.93852 -2.095704,-2.095703 -4.93e-4,-1.157945 0.937759,-2.097071 2.095704,-2.097656 z m 5.445312,0 c 1.158708,-4.93e-4 2.098149,0.938948 2.097656,2.097656 -5.86e-4,1.157945 -0.939711,2.096196 -2.097656,2.095703 -1.157182,-5.85e-4 -2.095118,-0.938521 -2.095703,-2.095703 -4.93e-4,-1.157945 0.937758,-2.09707 2.095703,-2.097656 z"
     inkscape:export-filename="D:\Projects\LamPi\logo\lampi.jpg"
     inkscape:export-xdpi="96"
     inkscape:export-ydpi="96"
     sodipodi:nodetypes="sssccccccsccscssssscsssssscccccccccccccccccccc" />
  <path
     id="path1948-1"
     style="fill:url(#linearGradient7335);fill-opacity:1"
     d="m 61.666406,118.14797 c 4.583653,-0.0213 4.218961,-0.0997 12.8125,-1.09375 8.593539,-0.99408 19.36692,-7.76183 33.908204,-12.88867 1.56225,-0.5508 3.84375,-3.15039 3.84375,-3.15039 L 100.23281,91.966333 99.228902,93.12063 61.072656,92.897973 v -3.40625 h 26.8125 10.062496 c 7.792458,0 14.615758,-4.683717 16.749998,-13.59375 2.46182,-10.212966 2.57102,-16.586022 0,-27.25 -1.90592,-7.937852 -6.45754,-13.593747 -14.25,-13.59375 h -9.218744 v 12.25 c 0,8.849903 -7.657144,16.656249 -16.75,16.65625 H 47.697659 c -7.45495,0 -13.40626,6.138164 -13.40625,13.625 v 25.531247 c 0,7.26634 6.12998,12.72478 13.40625,13.9375 4.60598,0.76673 9.385094,1.11505 13.968747,1.09375 z m 14.5,-8.21875 c -2.769547,0 -5.03125,-2.29864 -5.03125,-5.125 2e-6,-2.81633 2.261703,-5.093747 5.03125,-5.093747 2.779476,2e-6 5.03125,2.277417 5.03125,5.093747 1e-6,2.82636 -2.251774,5.125 -5.03125,5.125 z m -10.953125,-3.20508 c -1.157942,-5.9e-4 -2.096192,-0.93971 -2.095703,-2.09765 5.87e-4,-1.15718 0.938522,-2.09511 2.095703,-2.0957 1.157944,-4.9e-4 2.097069,0.93776 2.097657,2.0957 4.9e-4,1.15871 -0.938951,2.09814 -2.097657,2.09765 z m -5.445312,0 c -1.157942,-5.9e-4 -2.096192,-0.93971 -2.095703,-2.09765 5.87e-4,-1.15718 0.938522,-2.09511 2.095703,-2.0957 1.157944,-4.9e-4 2.097068,0.93776 2.097656,2.0957 4.9e-4,1.15871 -0.938951,2.09814 -2.097656,2.09765 z m -5.445313,0 c -1.158706,4.9e-4 -2.098147,-0.93894 -2.097657,-2.09765 5.88e-4,-1.15794 0.939713,-2.09619 2.097657,-2.0957 1.157181,5.8e-4 2.095117,0.93852 2.095704,2.0957 4.89e-4,1.15794 -0.937761,2.09706 -2.095704,2.09765 z m -5.445317,0 c -1.158703,4.9e-4 -2.09814,-0.93895 -2.09765,-2.09765 5.88e-4,-1.15794 0.939709,-2.09619 2.09765,-2.0957 1.157184,5.8e-4 2.095123,0.93852 2.09571,2.0957 4.89e-4,1.15795 -0.937765,2.09707 -2.09571,2.09765 z"
     inkscape:export-filename="D:\Projects\LamPi\logo\lampi.jpg"
     inkscape:export-xdpi="96"
     inkscape:export-ydpi="96"
     sodipodi:nodetypes="scsccccccsccscssscscsssssscccccccccccccccccccc" />
  <path
     d="m 429.07428,239.38148 h 1.56195 v -9.79624 h 3.70013 v -1.16766 h -8.96221 v 1.16766 h 3.70013 v 9.79624 m 6.64702,0 h 1.33447 v -8.94703 l 2.89641,8.9459 h 1.48569 l 3.01816,-8.91557 v 8.9167 h 1.45579 v -10.9639 h -1.92589 l -3.29831,9.39285 -2.81297,-9.39285 h -2.15335 v 10.9639"
     style="font-style:normal;font-weight:normal;font-size:15.1645px;line-height:125%;font-family:'Bitstream Vera Sans';fill:#646464;fill-opacity:1;stroke:none;stroke-width:1px;stroke-linecap:butt;stroke-linejoin:miter;stroke-opacity:1"
     id="text3004"
     sodipodi:nodetypes="ccccccccccccccccccccccc" />
  <path
     sodipodi:type="arc"
     style="opacity:0.44382022;fill:url(#radialGradient1480);fill-opacity:1;fill-rule:nonzero;stroke:none;stroke-width:20;stroke-miterlimit:4;stroke-dasharray:none;stroke-opacity:1"
     id="path1894"
     sodipodi:cx="61.518883"
     sodipodi:cy="132.28575"
     sodipodi:rx="48.948284"
     sodipodi:ry="8.6066771"
     d="M 110.46717 132.28575 A 48.948284 8.6066771 0 1 1  12.570599,132.28575 A 48.948284 8.6066771 0 1 1  110.46717 132.28575 z"
     transform="matrix(0.73406,0,0,0.809524,16.24958,27.00935)"
     inkscape:export-filename="D:\Projects\LamPi\logo\lampi.jpg"
     inkscape:export-xdpi="96"
     inkscape:export-ydpi="96" />
  <text
     xml:space="preserve"
     style="font-style:normal;font-weight:normal;font-size:89.2603px;line-height:1.25;font-family:sans-serif;fill:#646464;fill-opacity:1;stroke:none;stroke-width:2.23151"
     x="135.26044"
     y="96.139107"
     id="text9268"
     inkscape:export-filename="D:\Projects\LamPi\logo\lampi.jpg"
     inkscape:export-xdpi="96"
     inkscape:export-ydpi="96"><tspan
       sodipodi:role="line"
       id="tspan9266"
       x="135.26044"
       y="96.139107"
       style="font-style:normal;font-variant:normal;font-weight:normal;font-stretch:normal;font-family:Candela;-inkscape-font-specification:Candela;fill:#646464;fill-opacity:1;stroke-width:2.23151">LamPy</tspan></text>
</svg>
