<?xml version="1.0" encoding="UTF-8" standalone="no"?>
<svg
   xmlns:osb="http://www.openswatchbook.org/uri/2009/osb"
   xmlns:dc="http://purl.org/dc/elements/1.1/"
   xmlns:cc="http://creativecommons.org/ns#"
   xmlns:rdf="http://www.w3.org/1999/02/22-rdf-syntax-ns#"
   xmlns:svg="http://www.w3.org/2000/svg"
   xmlns="http://www.w3.org/2000/svg"
   xmlns:xlink="http://www.w3.org/1999/xlink"
   height="297mm"
   width="210mm"
   id="svg2"
   version="1.0">
  <metadata
     id="metadata371">
    <rdf:RDF>
      <cc:Work
         rdf:about="">
        <dc:format>image/svg+xml</dc:format>
        <dc:type
           rdf:resource="http://purl.org/dc/dcmitype/StillImage" />
        <dc:title></dc:title>
      </cc:Work>
    </rdf:RDF>
  </metadata>
  <defs
     id="defs4">
    <linearGradient
       id="linearGradient1712">
      <stop
         id="stop1708"
         offset="0"
         style="stop-color:#006938;stop-opacity:1" />
      <stop
         id="stop1710"
         offset="1"
         style="stop-color:#7fb49b;stop-opacity:1" />
    </linearGradient>
    <linearGradient
       id="linearGradient1340">
      <stop
         id="stop1336"
         offset="0"
         style="stop-color:#00b5d1;stop-opacity:1" />
      <stop
         id="stop1338"
         offset="1"
         style="stop-color:#003865;stop-opacity:1" />
    </linearGradient>
    <linearGradient
       id="linearGradient4689">
      <stop
         id="stop1045"
         offset="0"
         style="stop-color:#5a9fd4;stop-opacity:1;" />
      <stop
         id="stop1047"
         offset="1"
         style="stop-color:#306998;stop-opacity:1;" />
    </linearGradient>
    <linearGradient
       id="linearGradient2795">
      <stop
         id="stop2797"
         offset="0"
         style="stop-color:#b8b8b8;stop-opacity:0.49803922;" />
      <stop
         id="stop2799"
         offset="1"
         style="stop-color:#7f7f7f;stop-opacity:0;" />
    </linearGradient>
    <linearGradient
       id="linearGradient2787">
      <stop
         id="stop2789"
         offset="0"
         style="stop-color:#7f7f7f;stop-opacity:0.5;" />
      <stop
         id="stop2791"
         offset="1"
         style="stop-color:#7f7f7f;stop-opacity:0;" />
    </linearGradient>
    <linearGradient
       id="linearGradient3676">
      <stop
         id="stop3678"
         offset="0"
         style="stop-color:#b2b2b2;stop-opacity:0.5;" />
      <stop
         id="stop3680"
         offset="1"
         style="stop-color:#b3b3b3;stop-opacity:0;" />
    </linearGradient>
    <linearGradient
       id="linearGradient3236">
      <stop
         id="stop3244"
         offset="0"
         style="stop-color:#f4f4f4;stop-opacity:1" />
      <stop
         id="stop3240"
         offset="1"
         style="stop-color:white;stop-opacity:1" />
    </linearGradient>
    <linearGradient
       id="linearGradient4671">
      <stop
         id="stop4673"
         offset="0"
         style="stop-color:#ffd43b;stop-opacity:1;" />
      <stop
         id="stop4675"
         offset="1"
         style="stop-color:#ffe873;stop-opacity:1" />
    </linearGradient>
    <linearGradient
       osb:paint="gradient"
       id="glasg">
      <stop
         id="stop4691"
         offset="0"
         style="stop-color:#5a9fd4;stop-opacity:1;" />
      <stop
         id="stop4693"
         offset="1"
         style="stop-color:#306998;stop-opacity:1;" />
    </linearGradient>
    <linearGradient
       gradientTransform="translate(100.2702,99.61116)"
       gradientUnits="userSpaceOnUse"
       xlink:href="#linearGradient4671"
       id="linearGradient2987"
       y2="144.75717"
       x2="-65.308502"
       y1="144.75717"
       x1="224.23996" />
    <linearGradient
       gradientTransform="translate(100.2702,99.61116)"
       gradientUnits="userSpaceOnUse"
       xlink:href="#glasg"
       id="linearGradient2990"
       y2="76.313133"
       x2="26.670298"
       y1="77.475983"
       x1="172.94208" />
    <linearGradient
       y2="76.313133"
       x2="26.670298"
       y1="77.475983"
       x1="172.94208"
       gradientTransform="translate(100.2702,99.61116)"
       gradientUnits="userSpaceOnUse"
       id="linearGradient2587"
       xlink:href="#glasg" />
    <linearGradient
       y2="144.75717"
       x2="-65.308502"
       y1="144.75717"
       x1="224.23996"
       gradientTransform="translate(100.2702,99.61116)"
       gradientUnits="userSpaceOnUse"
       id="linearGradient2589"
       xlink:href="#linearGradient4671" />
    <linearGradient
       y2="76.313133"
       x2="26.670298"
       y1="77.475983"
       x1="172.94208"
       gradientTransform="translate(100.2702,99.61116)"
       gradientUnits="userSpaceOnUse"
       id="linearGradient2248"
       xlink:href="#glasg" />
    <linearGradient
       y2="144.75717"
       x2="-65.308502"
       y1="144.75717"
       x1="224.23996"
       gradientTransform="translate(100.2702,99.61116)"
       gradientUnits="userSpaceOnUse"
       id="linearGradient2250"
       xlink:href="#linearGradient4671" />
    <linearGradient
       y2="144.75717"
       x2="-65.308502"
       y1="144.75717"
       x1="224.23996"
       gradientTransform="matrix(0.562541,0,0,0.567972,-11.5974,-7.60954)"
       gradientUnits="userSpaceOnUse"
       id="linearGradient2255"
       xlink:href="#linearGradient4671" />
    <linearGradient
       y2="76.313133"
       x2="26.670298"
       y1="76.176224"
       x1="172.94208"
       gradientTransform="matrix(0.562541,0,0,0.567972,-11.5974,-7.60954)"
       gradientUnits="userSpaceOnUse"
       id="linearGradient2258"
       xlink:href="#glasg" />
    <radialGradient
       gradientUnits="userSpaceOnUse"
       gradientTransform="matrix(1,0,0,0.177966,0,108.7434)"
       r="29.036913"
       fy="132.28575"
       fx="61.518883"
       cy="132.28575"
       cx="61.518883"
       id="radialGradient2801"
       xlink:href="#linearGradient2795" />
  </defs>
  <g
     transform="matrix(29.865007,0,0,29.865007,-146.21083,-448.10909)"
     id="g3970">
    <path
       style="fill:#ff9955"
       d="m 13.453,17.838 a 0.714,0.714 0 0 0 -0.426,0.174 0.975,0.975 0 0 0 -1.096,0.104 0.748,0.748 0 0 0 -0.818,0.235 1.288,1.288 0 0 0 -1.183,0.357 C 9.06,18.604 8.807,19.204 9.112,19.77 a 0.731,0.731 0 0 0 0.052,1.044 0.87,0.87 0 0 0 0.287,0.966 0.818,0.818 0 0 0 0.4,0.87 1.149,1.149 0 0 0 0.67,0.983 0.94,0.94 0 0 0 0.87,0.792 0.94,0.94 0 0 0 0.87,0.661 4.046,4.046 0 0 0 -2.323,4.064 l -0.165,0.296 a 3.924,3.924 0 0 0 -0.696,5.882 11.008,11.008 0 0 0 0.54,1.74 4.351,4.351 0 0 0 2.689,3.481 9.067,9.067 0 0 0 2.611,1.462 4.264,4.264 0 0 0 3.159,1.418 h 0.052 a 4.264,4.264 0 0 0 3.159,-1.418 9.067,9.067 0 0 0 2.611,-1.462 4.351,4.351 0 0 0 2.689,-3.481 11.008,11.008 0 0 0 0.54,-1.74 3.924,3.924 0 0 0 -0.696,-5.882 L 26.153,29.15 a 4.055,4.055 0 0 0 -2.28,-4.003 0.94,0.94 0 0 0 0.87,-0.661 0.94,0.94 0 0 0 0.87,-0.792 1.149,1.149 0 0 0 0.67,-0.983 0.818,0.818 0 0 0 0.4,-0.87 0.87,0.87 0 0 0 0.287,-0.966 0.731,0.731 0 0 0 0.052,-1.044 c 0.305,-0.557 0,-1.157 -0.818,-1.062 a 1.288,1.288 0 0 0 -1.227,-0.418 0.748,0.748 0 0 0 -0.809,-0.235 0.975,0.975 0 0 0 -1.096,-0.104 0.948,0.948 0 0 0 -1.114,0.044 0.992,0.992 0 0 0 -0.957,0.165 0.983,0.983 0 0 0 -1.079,0.487 h -0.34 A 3.855,3.855 0 0 0 18.05,20.91 3.855,3.855 0 0 0 16.518,18.656 h -0.34 a 0.983,0.983 0 0 0 -1.079,-0.435 0.992,0.992 0 0 0 -0.975,-0.165 2.115,2.115 0 0 0 -0.67,-0.218 z"
       id="path3964" />
    <path
       style="fill:#ffffff"
       d="m 11.635,20.213 a 16.42,16.42 0 0 1 4.612,3.124 c -0.383,1.584 -2.463,1.662 -3.22,1.62 a 0.566,0.566 0 0 0 0.331,-0.287 8.702,8.702 0 0 1 -1.331,-0.278 0.444,0.444 0 0 0 0.357,-0.209 3.82,3.82 0 0 1 -1.201,-0.496 0.679,0.679 0 0 0 0.479,-0.104 4.647,4.647 0 0 1 -1.149,-0.714 0.87,0.87 0 0 0 0.487,-0.078 4.429,4.429 0 0 1 -0.922,-0.748 0.679,0.679 0 0 0 0.479,-0.044 3.69,3.69 0 0 1 -0.792,-0.87 0.583,0.583 0 0 0 0.548,0 4.699,4.699 0 0 1 -0.722,-0.87 1.157,1.157 0 0 0 0.513,0 2.428,2.428 0 0 0 -0.461,-0.87 8.188,8.188 0 0 0 1.175,0 l -0.287,-0.348 a 2.349,2.349 0 0 1 1.297,0.131 c 0.157,-0.122 0,-0.278 -0.2,-0.435 a 4.716,4.716 0 0 1 1.088,0.27 c 0.165,-0.157 -0.122,-0.296 -0.26,-0.47 a 2.776,2.776 0 0 1 1.14,0.444 c 0.2,-0.183 0,-0.33 -0.113,-0.487 a 2.785,2.785 0 0 1 0.957,0.618 0.339,0.339 0 0 0 0.052,-0.487 2.428,2.428 0 0 1 0.766,0.661 0.426,0.426 0 0 0 0.122,-0.47 7.605,7.605 0 0 1 0.87,0.87 0.731,0.731 0 0 0 0.139,-0.383 c 0.818,0.792 1.975,2.793 0.296,3.585 a 15.768,15.768 0 0 0 -5.056,-2.671 z m 12.878,0 a 16.42,16.42 0 0 0 -4.612,3.124 c 0.4,1.584 2.463,1.662 3.22,1.62 a 0.566,0.566 0 0 1 -0.296,-0.296 8.702,8.702 0 0 0 1.331,-0.278 0.444,0.444 0 0 1 -0.348,-0.209 3.82,3.82 0 0 0 1.201,-0.496 0.679,0.679 0 0 1 -0.487,-0.104 4.647,4.647 0 0 0 1.149,-0.714 0.87,0.87 0 0 1 -0.487,-0.078 4.429,4.429 0 0 0 0.922,-0.748 0.679,0.679 0 0 1 -0.479,-0.044 3.69,3.69 0 0 0 0.792,-0.87 0.583,0.583 0 0 1 -0.548,0 4.699,4.699 0 0 0 0.722,-0.87 1.157,1.157 0 0 1 -0.513,0 2.428,2.428 0 0 1 0.461,-0.87 8.188,8.188 0 0 1 -1.175,0 l 0.296,-0.305 a 2.349,2.349 0 0 0 -1.297,0.131 c -0.157,-0.122 0,-0.278 0.2,-0.435 a 4.716,4.716 0 0 0 -1.088,0.27 c -0.2,-0.2 0.078,-0.33 0.226,-0.505 a 2.776,2.776 0 0 0 -1.14,0.444 c -0.2,-0.183 0,-0.33 0.113,-0.487 a 2.785,2.785 0 0 0 -0.957,0.618 0.339,0.339 0 0 1 -0.061,-0.487 2.428,2.428 0 0 0 -0.766,0.661 0.426,0.426 0 0 1 -0.122,-0.47 7.605,7.605 0 0 0 -0.87,0.87 0.731,0.731 0 0 1 -0.139,-0.383 c -0.818,0.792 -1.975,2.793 -0.296,3.585 a 15.75,15.75 0 0 1 5.021,-2.671 z"
       id="path3966" />
    <path
       style="fill:#ffffff"
       d="m 21.015,36.372 a 2.802,2.802 0 0 1 -2.889,2.698 2.802,2.802 0 0 1 -2.924,-2.671 2.802,2.802 0 0 1 2.889,-2.698 2.802,2.802 0 0 1 2.924,2.671 z M 16.42,28.715 a 2.863,2.863 0 0 1 0.487,3.994 2.889,2.889 0 0 1 -3.881,1.14 2.863,2.863 0 0 1 -0.487,-3.994 2.889,2.889 0 0 1 3.881,-1.14 z m 3.255,-0.148 a 2.863,2.863 0 0 0 -0.487,3.994 2.889,2.889 0 0 0 3.881,1.14 2.863,2.863 0 0 0 0.487,-3.994 2.889,2.889 0 0 0 -3.881,-1.14 z M 10.4,30.02 c 1.305,-0.348 0.435,5.386 -0.618,4.916 A 3.098,3.098 0 0 1 10.4,30.02 Z m 15.036,-0.087 c -1.305,-0.348 -0.435,5.386 0.618,4.916 a 3.098,3.098 0 0 0 -0.618,-4.916 z m -4.42,-4.263 c 2.245,-0.383 4.116,0.957 4.038,3.394 -0.07,0.957 -4.838,-3.263 -4.038,-3.394 z M 14.8,25.6 c -2.245,-0.383 -4.116,0.957 -4.038,3.394 0.07,0.93 4.864,-3.254 4.038,-3.394 z m 3.23,-0.565 c -1.34,0 -2.6,0.992 -2.6,1.592 0,0.6 1.062,1.47 2.6,1.488 1.538,0.018 2.6,-0.592 2.6,-1.34 0,-0.748 -1.47,-1.74 -2.654,-1.74 z m 0.087,14.87 c 1.166,-0.052 2.732,0.374 2.74,0.94 0.008,0.566 -1.418,1.793 -2.82,1.74 -1.402,-0.053 -2.863,-1.183 -2.845,-1.62 0,-0.635 1.74,-1.13 2.924,-1.096 z M 13.8,36.545 c 0.87,1 1.2,2.767 0.513,3.28 -0.687,0.513 -2.254,0.235 -3.385,-1.392 -0.757,-1.375 -0.66,-2.758 -0.122,-3.194 0.8,-0.487 2.045,0.174 3.002,1.28 z m 8.468,-0.32 c -0.87,1.053 -1.4,2.976 -0.748,3.594 0.627,0.48 2.315,0.418 3.56,-1.314 a 3.307,3.307 0 0 0 0.087,-3.611 c -0.766,-0.592 -1.87,0.165 -2.898,1.33 z"
       id="path3968" />
  </g>
  <ellipse
     ry="249.22281"
     rx="241.86568"
     cy="539.59906"
     cx="387.8833"
     id="path4828"
     style="fill:#ffffff;fill-opacity:1;stroke:none;stroke-width:6.34842253" />
  <g
     transform="matrix(3.9315171,0,0,3.9315171,-77.986306,513.39336)"
     id="g4826">
    <rect
       style="fill:#ffffff"
       id="rect3988"
       width="41.678547"
       height="15.48531"
       x="95.494751"
       y="-44.288132" />
    <rect
       style="fill:#ffffff"
       id="rect3990"
       width="37.395374"
       height="17.626896"
       x="103.56688"
       y="39.398434" />
    <g
       id="g3986"
       transform="translate(59.548328,-67.240924)">
      <path
         d="m 59.44386,17.053175 c -4.583653,0.0213 -4.218961,0.09967 -12.8125,1.09375 -8.593539,0.994079 -19.36692,7.76183 -33.908204,12.888672 -1.562255,0.550807 -3.8437495,3.150391 -3.8437495,3.150391 l 11.9980465,9.048828 1.003907,-1.154297 38.15625,0.222657 v 3.40625 h -26.8125 -10.0625 c -7.792459,0 -14.6157594,4.683717 -16.7500004,13.59375 -2.46182,10.212966 -2.5710151,16.586022 0,27.25 1.9059283,7.937852 6.4575434,13.593744 14.2500004,13.593754 h 9.21875 V 87.896926 c 0,-8.849903 7.657144,-16.656249 16.75,-16.65625 h 26.78125 c 7.454951,0 13.406253,-6.138164 13.40625,-13.625 v -25.53125 c 0,-7.266339 -6.12998,-12.724778 -13.40625,-13.937501 -4.605987,-0.766725 -9.385097,-1.115048 -13.96875,-1.09375 z m -14.5,8.218751 c 2.769547,0 5.03125,2.298645 5.03125,5.125 -2e-6,2.816335 -2.261703,5.09375 -5.03125,5.09375 -2.779476,-2e-6 -5.03125,-2.277416 -5.03125,-5.09375 -10e-7,-2.826354 2.251774,-5.125 5.03125,-5.125 z m 10.953125,3.205078 c 1.157945,5.86e-4 2.096196,0.939711 2.095703,2.097656 -5.85e-4,1.157182 -0.938521,2.095118 -2.095703,2.095703 -1.157945,4.93e-4 -2.097071,-0.937758 -2.097657,-2.095703 -4.93e-4,-1.158708 0.938949,-2.09815 2.097657,-2.097656 z m 5.445312,0 c 1.157945,5.86e-4 2.096196,0.939711 2.095703,2.097656 -5.85e-4,1.157182 -0.938521,2.095118 -2.095703,2.095703 -1.157945,4.93e-4 -2.09707,-0.937758 -2.097656,-2.095703 -4.93e-4,-1.158708 0.938948,-2.098149 2.097656,-2.097656 z m 5.445313,0 c 1.158708,-4.93e-4 2.098149,0.938948 2.097656,2.097656 -5.86e-4,1.157945 -0.939711,2.096196 -2.097656,2.095703 -1.157183,-5.85e-4 -2.095119,-0.93852 -2.095704,-2.095703 -4.93e-4,-1.157945 0.937759,-2.097071 2.095704,-2.097656 z m 5.445312,0 c 1.158708,-4.93e-4 2.098149,0.938948 2.097656,2.097656 -5.86e-4,1.157945 -0.939711,2.096196 -2.097656,2.095703 -1.157182,-5.85e-4 -2.095118,-0.938521 -2.095703,-2.095703 -4.93e-4,-1.157945 0.937758,-2.09707 2.095703,-2.097656 z"
         style="fill:#003865;fill-opacity:1"
         id="path1948" />
      <path
         d="m 60.6005,128.80271 c 4.583653,-0.0213 4.218961,-0.0997 12.8125,-1.09375 8.593539,-0.99408 19.36692,-7.76183 33.9082,-12.88867 1.56225,-0.5508 3.84375,-3.15039 3.84375,-3.15039 l -11.998046,-9.04883 -1.003908,1.1543 -38.156246,-0.22266 v -3.40625 h 26.8125 10.062496 c 7.792454,0 14.615754,-4.683716 16.749994,-13.593749 2.46182,-10.212966 2.57102,-16.586022 0,-27.25 -1.90592,-7.937852 -6.45754,-13.593747 -14.249996,-13.59375 H 90.163 v 12.25 c 0,8.849903 -7.657144,16.656249 -16.75,16.65625 H 46.631753 c -7.45495,0 -13.40626,6.138164 -13.40625,13.625 v 25.531249 c 0,7.26634 6.12998,12.72478 13.40625,13.9375 4.60598,0.76673 9.385094,1.11505 13.968747,1.09375 z m 14.5,-8.21875 c -2.769547,0 -5.03125,-2.29864 -5.03125,-5.125 2e-6,-2.81633 2.261703,-5.09375 5.03125,-5.09375 2.779476,0 5.03125,2.27742 5.03125,5.09375 10e-7,2.82636 -2.251774,5.125 -5.03125,5.125 z m -10.953125,-3.20508 c -1.157942,-5.9e-4 -2.096192,-0.93971 -2.095703,-2.09765 5.87e-4,-1.15718 0.938522,-2.09511 2.095703,-2.0957 1.157944,-4.9e-4 2.097069,0.93776 2.097657,2.0957 4.9e-4,1.15871 -0.938951,2.09814 -2.097657,2.09765 z m -5.445312,0 c -1.157942,-5.9e-4 -2.096192,-0.93971 -2.095703,-2.09765 5.87e-4,-1.15718 0.938522,-2.09511 2.095703,-2.0957 1.157944,-4.9e-4 2.097068,0.93776 2.097656,2.0957 4.9e-4,1.15871 -0.938951,2.09814 -2.097656,2.09765 z m -5.445313,0 c -1.158706,4.9e-4 -2.098147,-0.93894 -2.097657,-2.09765 5.88e-4,-1.15794 0.939713,-2.09619 2.097657,-2.0957 1.157181,5.8e-4 2.095117,0.93852 2.095704,2.0957 4.89e-4,1.15794 -0.937761,2.09706 -2.095704,2.09765 z m -5.445317,0 c -1.158703,4.9e-4 -2.09814,-0.93895 -2.09765,-2.09765 5.88e-4,-1.15794 0.939709,-2.09619 2.09765,-2.0957 1.157184,5.8e-4 2.095123,0.93852 2.09571,2.0957 4.89e-4,1.15795 -0.937765,2.09707 -2.09571,2.09765 z"
         style="fill:#006938;fill-opacity:1"
         id="path1948-1" />
    </g>
  </g>
  <g
     transform="matrix(4.102574,0,0,4.102574,-65.806713,502.30263)"
     id="g4843">
    <text
       xml:space="preserve"
       style="font-style:normal;font-variant:normal;font-weight:normal;font-stretch:normal;font-size:50.66666794px;line-height:1.25;font-family:Ubuntu;-inkscape-font-specification:Ubuntu;fill:#006938;fill-opacity:1;stroke:none;stroke-width:1.31728971"
       x="33.858871"
       y="124.37456"
       id="text9268"><tspan
         id="tspan9266"
         x="33.858871"
         y="124.37456"
         style="font-style:normal;font-variant:normal;font-weight:normal;font-stretch:normal;font-size:50.66666794px;font-family:Ubuntu;-inkscape-font-specification:Ubuntu;fill:#006938;fill-opacity:1;stroke-width:1.31728971">Lam</tspan></text>
    <text
       xml:space="preserve"
       style="font-style:normal;font-variant:normal;font-weight:normal;font-stretch:normal;font-size:50.66666794px;line-height:1.25;font-family:Ubuntu;-inkscape-font-specification:Ubuntu;letter-spacing:0px;word-spacing:0px;fill:#003865;fill-opacity:1;stroke:none"
       x="129.43666"
       y="124.72923"
       id="text4835"><tspan
         id="tspan4833"
         x="129.43666"
         y="124.72923">Py</tspan></text>
  </g>
</svg>
